<svg width="168" height="71" viewBox="0 0 168 71" fill="none" xmlns="http://www.w3.org/2000/svg">
                        <path d="M69.4482 41.2593C58.4254 50.1472 45.2677 52.195 40.0831 45.7468C34.942 39.3423 39.6474 26.9253 50.6702 17.9938C54.1992 15.1182 57.9897 12.9834 61.6494 11.5892C55.1577 4.48755 45.8341 0 35.4212 0C15.9026 0 0.0437012 15.8589 0.0437012 35.3775C0.0437012 54.8962 15.9026 70.7551 35.4212 70.7551C53.2407 70.7551 68.0104 57.5539 70.4502 40.3879C70.1453 40.6929 69.7967 40.9979 69.4482 41.2593Z" fill="white"></path>
                        <path d="M98.8133 43.0892H91.7988V20.2158H98.8133V27.971H105.828V20.2158H112.842V43.0892H105.828V34.0706H98.8133V43.0892Z" fill="white"></path>
                        <path d="M116.458 31.6744C116.458 28.3632 117.591 25.5749 119.944 23.2657C122.297 20.9131 125.216 19.7803 128.745 19.7803C132.274 19.7803 135.193 20.9566 137.502 23.2657C139.811 25.5749 140.988 28.3632 140.988 31.6744C140.988 34.9856 139.811 37.8176 137.502 40.1267C135.193 42.4358 132.274 43.6122 128.745 43.6122C125.216 43.6122 122.297 42.4358 119.944 40.1267C117.635 37.7305 116.458 34.9421 116.458 31.6744ZM125.129 35.5956C126.087 36.6412 127.307 37.1205 128.745 37.1205C130.183 37.1205 131.402 36.5977 132.361 35.5956C133.319 34.55 133.799 33.1993 133.799 31.6309C133.799 30.0624 133.319 28.7118 132.361 27.7097C131.402 26.6641 130.226 26.1413 128.745 26.1413C127.263 26.1413 126.044 26.6641 125.129 27.7097C124.17 28.7554 123.691 30.0624 123.691 31.6309C123.691 33.2429 124.127 34.55 125.129 35.5956Z" fill="white"></path>
                        <path d="M168 47.3154H161.378V43.0892H144.56V20.2158H151.575V37.0332H158.154V20.2158H165.125V37.0332H168V47.3154Z" fill="white"></path>
                        <path d="M94.6306 62.0417C93.8899 62.0417 93.3235 61.9546 92.975 61.7803V60.0376C93.4106 60.2119 93.8463 60.3426 94.3256 60.3426C94.8048 60.3426 95.1969 60.2119 95.5019 59.994C95.8069 59.7326 96.1555 59.2534 96.5476 58.4691L91.8857 50.104H93.977L97.4625 56.465L100.338 50.104H102.299L97.9853 59.3405C97.1575 61.1268 96.0247 62.0417 94.6306 62.0417Z" fill="#E50046"></path>
                        <path d="M107.614 61.8235H105.784V50.0601H110.838C112.058 50.0601 113.016 50.365 113.713 51.0186C114.41 51.6285 114.759 52.4563 114.759 53.4584C114.759 54.4605 114.41 55.3318 113.713 55.9854C113.016 56.6389 112.058 56.9439 110.838 56.9439H107.614V61.8235ZM107.614 51.8028V55.3318H110.664C111.361 55.3318 111.884 55.1576 112.276 54.8526C112.668 54.5476 112.842 54.1119 112.842 53.5455C112.842 52.9791 112.668 52.5435 112.276 52.2385C111.884 51.9335 111.361 51.8028 110.62 51.8028H107.614Z" fill="#E50046"></path>
                        <path d="M118.157 61.8236H116.197L121.338 50.0166H123.124L128.265 61.8236H126.305L125.041 58.9046H119.464L118.157 61.8236ZM122.209 52.3693L120.074 57.2925H124.388L122.209 52.3693Z" fill="#E50046"></path>
                        <path d="M130.182 61.7802V60.1246C130.313 60.1682 130.531 60.2118 130.792 60.2118C131.62 60.2118 132.187 59.6889 132.448 58.6869C132.709 57.8155 132.884 56.2906 132.927 54.1558L132.971 50.1475H140.813V61.9109H138.983V51.8466H134.801L134.757 54.3736C134.713 56.9006 134.452 58.8176 133.929 60.0375C133.406 61.3445 132.404 61.9545 130.967 61.9545C130.618 61.8674 130.357 61.8674 130.182 61.7802Z" fill="#E50046"></path>
                        <path d="M51.1057 7.71143C49.5808 7.79856 48.0124 7.97284 46.4439 8.14711C41.8256 8.7135 37.4252 9.71557 33.3298 10.9791C31.4128 13.5932 29.1472 16.2944 26.4896 18.9521C19.6929 25.7052 12.417 30.3234 7.14519 31.5869C6.62237 33.4604 6.4481 35.3774 6.66594 37.2508C7.18876 41.5641 9.80287 45.3545 13.8983 48.4043C15.2054 39.6906 19.1701 31.3691 25.836 24.7031C34.114 16.4251 45.0497 12.2861 56.029 12.2861C56.4646 12.2861 56.9003 12.2861 57.336 12.2861C55.419 10.4998 53.3277 8.97491 51.1057 7.71143Z" fill="#3AAA35"></path>
                        <path d="M35.3776 3.57275C26.8818 3.57275 18.8652 6.88395 12.8527 12.8964C7.66809 18.081 4.4876 24.747 3.70337 31.8922C3.92121 31.8922 4.18262 31.9358 4.40046 31.9358C5.22826 31.9358 6.1432 31.8051 7.1017 31.5872C9.5851 23.0914 19.6058 15.2927 33.3299 10.9794C35.1598 8.40885 36.6411 5.92545 37.6867 3.65989C36.9461 3.57275 36.1618 3.57275 35.3776 3.57275Z" fill="#0081C3"></path>
                        <path d="M13.8983 48.4048C13.3755 51.7596 13.2883 55.1579 13.5497 58.5562C15.4232 60.3425 17.4709 61.8674 19.6929 63.0873C22.7862 62.1724 26.2281 61.4753 29.8443 61.0396C29.975 61.0396 30.1057 60.9961 30.2364 60.9961C29.4086 58.9483 28.7551 56.8571 28.2758 54.6351C22.5684 53.2844 17.6016 51.1496 13.8983 48.4048Z" fill="#0081C3"></path>
                        <path d="M69.1867 19.7801C69.7966 20.4336 67.6618 26.2718 63.9149 32.0228C60.168 37.7739 55.6805 42.8278 54.722 41.7386C53.7634 40.693 56.8132 32.4585 55.724 28.9731C54.6348 25.444 46.2261 30.0187 45.8776 29.6266C45.529 29.2345 53.1099 24.6598 58.2074 22.5249C63.3485 20.4336 68.5767 19.1266 69.1867 19.7801Z" fill="url(#paint0_linear)"></path>
                        <path d="M7.14512 31.587C6.18661 31.8049 5.27168 31.9356 4.44388 31.9356C4.18247 31.9356 3.96463 31.9356 3.74678 31.892C3.61608 33.0248 3.57251 34.2011 3.57251 35.3775C3.57251 43.8733 6.88371 51.8899 12.8962 57.9023C13.114 58.1202 13.3318 58.338 13.5932 58.5559C13.3318 55.1575 13.419 51.7592 13.9418 48.4044C9.84636 45.3546 7.27582 41.5642 6.70944 37.2509C6.44802 35.3339 6.6223 33.4605 7.14512 31.587ZM37.6866 3.65967C36.6409 5.96879 35.1596 8.45219 33.3297 10.9792C37.4252 9.71568 41.8256 8.7136 46.4438 8.14721C48.0123 7.92937 49.5808 7.79867 51.1056 7.71153C47.0102 5.35884 42.4791 3.96465 37.6866 3.65967Z" fill="#006B2D"></path>
                        <path d="M66.4854 42.1742C65.5705 46.4439 63.7842 50.4086 61.2136 53.9813C60.2115 55.3754 59.0788 56.6825 57.8589 57.9024C56.0725 59.6887 54.0684 61.2572 51.9771 62.5642C47.0103 65.614 41.3029 67.2261 35.334 67.2261C34.724 67.2261 34.1141 67.2261 33.5041 67.1825C28.5809 66.9211 23.8319 65.5269 19.6494 63.1306C17.4709 61.8671 15.3796 60.3422 13.5062 58.5995C13.2884 58.3817 13.0705 58.1638 12.8091 57.946C6.88381 51.89 3.57261 43.8734 3.57261 35.3775C3.57261 34.2012 3.61618 33.0248 3.74688 31.8921C4.53112 24.7033 7.71161 18.0809 12.8962 12.8962C18.9087 6.88381 26.8817 3.57261 35.3775 3.57261C36.1618 3.57261 36.9024 3.61618 37.6867 3.65975C42.4792 4.00829 47.0103 5.40248 51.1057 7.71161C53.3277 8.97509 55.419 10.5436 57.2925 12.3299C57.336 12.3734 57.4232 12.4606 57.4667 12.5041C57.5974 12.6348 57.7281 12.7655 57.8589 12.8962C57.946 12.9834 58.0767 13.1141 58.1638 13.2012C59.3402 12.6348 60.5165 12.112 61.6493 11.7199C60.6037 10.5436 59.5145 9.45434 58.2945 8.45227C57.946 8.14729 57.5539 7.84231 57.1618 7.53733C57.1182 7.49377 57.0746 7.4502 57.031 7.40663C53.6763 4.79252 50.0165 2.87551 46.1825 1.6556H46.1389H46.0954C43.8734 0.914936 41.4771 0.435684 38.9937 0.174274C37.8174 0.0435684 36.5975 0 35.3775 0C34.8547 0 34.2883 0 33.7655 0.0435684C28.973 0.26141 24.2676 1.43776 19.9108 3.57261C15.4668 5.75103 11.5456 8.80082 8.4087 12.5041C8.06016 12.8962 7.75518 13.2884 7.4502 13.724C5.05394 16.7738 3.26763 20.1286 2.04772 23.5705V23.6141C1.30705 25.7054 0.740663 27.8838 0.435684 30.1493C0.130705 31.8049 0 33.5912 0 35.3775C0 35.9439 0 36.4668 0.0435684 37.0331C0.26141 41.8257 1.48133 46.5746 3.61618 50.975C5.75103 55.3319 8.75725 59.1659 12.3734 62.3028C12.8091 62.6514 13.2448 63.0435 13.6805 63.3485C13.8983 63.5227 14.1162 63.6534 14.334 63.8277C14.6826 64.0891 15.0311 64.307 15.3361 64.5684C18.4294 66.7032 21.7842 68.2717 25.2261 69.3173H25.2697C28.4502 70.2758 31.8485 70.7987 35.3775 70.7987C35.6825 70.7987 35.9875 70.7987 36.3361 70.7987C36.5539 70.7987 36.7717 70.7987 36.9896 70.7551C41.7821 70.5372 46.4875 69.3609 50.8443 67.2696C52.4564 66.4854 54.0248 65.5704 55.5062 64.5248C58.0331 62.7821 60.3423 60.6908 62.3464 58.3381C62.6949 57.946 62.9999 57.5103 63.3485 57.1182C64.4812 55.6369 65.5269 54.112 66.3983 52.4999C67.3132 50.8008 68.0974 49.1016 68.751 47.3153V47.2717C69.7095 44.5705 70.363 41.7385 70.6244 38.7759C70.0144 39.3423 69.4045 39.9087 68.751 40.4315C68.0103 41.0414 67.2696 41.6078 66.4854 42.1742Z" fill="white"></path>
                        <path d="M42.8277 56.2025C37.6431 56.2025 32.7199 55.6361 28.2759 54.634C28.7116 56.8124 29.3651 58.9473 30.2365 60.995C33.0248 60.6464 35.7696 60.5157 38.2966 60.5157C43.7862 60.5157 48.5788 61.2564 51.9771 62.5634C54.0684 61.2564 56.0725 59.6879 57.8588 57.9016C59.0787 56.6817 60.2115 55.3747 61.2136 53.9805C58.3817 54.6776 55.419 55.244 52.3692 55.6361C49.1451 56.0282 45.9211 56.2025 42.8277 56.2025Z" fill="#312783"></path>
                        <path d="M30.2366 60.9956C31.1515 63.174 32.2407 65.2653 33.5478 67.1823C34.1577 67.2259 34.7677 67.2259 35.3776 67.2259C41.3465 67.2259 47.054 65.6139 52.0208 62.5641C48.6224 61.257 43.8299 60.5163 38.3403 60.5163C35.7698 60.4728 33.025 60.6471 30.2366 60.9956Z" fill="#E6007E"></path>
                        <path d="M40.7363 45.1366C35.6388 39.0371 39.9085 27.0993 50.2778 18.3856C52.8483 16.2508 55.506 14.5081 58.2072 13.201C58.1201 13.1139 57.9894 12.9832 57.9022 12.896C57.7715 12.7653 57.6408 12.6346 57.5101 12.5039C40.562 15.118 27.5786 29.8006 27.5786 47.4893C27.5786 49.9292 27.84 52.3254 28.3193 54.6781C32.7633 55.7238 37.6865 56.2466 42.8711 56.2466C45.9645 56.2466 49.1885 56.0287 52.4126 55.6366C55.4624 55.2445 58.425 54.6781 61.257 53.981C63.8275 50.452 65.5703 46.4437 66.5288 42.174C56.6387 49.3628 45.4852 50.8005 40.7363 45.1366Z" fill="#E6007E"></path>
                        <defs>
                            <linearGradient id="paint0_linear" x1="45.8972" y1="31.278" x2="69.6031" y2="30.5161" gradientUnits="userSpaceOnUse">
                                <stop stop-color="#FFDD00"></stop>
                                <stop offset="1" stop-color="#F39200"></stop>
                            </linearGradient>
                        </defs>
                    </svg>