<svg width="1920" height="712" viewBox="0 0 1920 712" fill="none" xmlns="http://www.w3.org/2000/svg">
<mask id="mask0" mask-type="alpha" maskUnits="userSpaceOnUse" x="0" y="0" width="1920" height="712">
<rect width="1920" height="712" fill="#C4C4C4"/>
</mask>
<g mask="url(#mask0)">
<path opacity="0.2" d="M1721.66 95.1825C1746.2 122.429 1658.74 361.48 1506.54 595.863C1354.2 830.247 1170.25 1037.08 1131.11 993.728C1091.97 950.524 1215.86 614.831 1171.45 471.22C1127.04 327.609 782.619 513.37 768.469 497.714C754.319 482.058 1063.52 295.244 1272.91 208.235C1483.51 120.924 1697.12 67.9356 1721.66 95.1825Z" fill="url(#paint0_linear)"/>
<path opacity="0.6" d="M1717.29 97.29C1731.14 112.645 1681.92 247.073 1596.26 378.942C1510.46 510.961 1407.04 627.325 1385.06 602.938C1363.08 578.552 1432.78 389.78 1407.79 308.943C1382.8 228.105 1188.91 332.727 1180.94 323.846C1172.96 314.964 1346.98 209.89 1464.85 160.966C1583.32 111.741 1703.44 81.9354 1717.29 97.29Z" fill="white"/>
<path d="M1715.04 98.9458C1719.4 103.763 1703.74 146.665 1676.5 188.665C1649.25 230.664 1616.28 267.696 1609.21 260.019C1602.13 252.341 1624.41 192.127 1616.43 166.386C1608.46 140.644 1546.74 173.912 1544.18 171.203C1541.62 168.343 1597.02 134.924 1634.5 119.268C1672.43 103.612 1710.67 94.1286 1715.04 98.9458Z" fill="white"/>
</g>
<defs>
<linearGradient id="paint0_linear" x1="1722.7" y1="101.622" x2="1097.22" y2="635.669" gradientUnits="userSpaceOnUse">
<stop stop-color="#0D71B9"/>
<stop offset="0.262" stop-color="#6E96CF"/>
<stop offset="0.6213" stop-color="#C0CDEA"/>
<stop offset="0.8759" stop-color="#EEF1FA"/>
<stop offset="1" stop-color="white"/>
</linearGradient>
</defs>
</svg>