<?xml version="1.0" encoding="UTF-8" standalone="no"?>
<svg
   xmlns:dc="http://purl.org/dc/elements/1.1/"
   xmlns:cc="http://creativecommons.org/ns#"
   xmlns:rdf="http://www.w3.org/1999/02/22-rdf-syntax-ns#"
   xmlns:svg="http://www.w3.org/2000/svg"
   xmlns="http://www.w3.org/2000/svg"
   xmlns:sodipodi="http://sodipodi.sourceforge.net/DTD/sodipodi-0.dtd"
   xmlns:inkscape="http://www.inkscape.org/namespaces/inkscape"
   width="1600"
   height="400"
   viewBox="0 0 423.33332 105.83334"
   version="1.1"
   id="svg8"
   inkscape:version="1.0.2 (e86c870879, 2021-01-15)"
   sodipodi:docname="umnoc_studio_logo.svg"
   inkscape:export-filename="/projects/umnoc/umnoc-theme/src/umnoc-studio-logo.png"
   inkscape:export-xdpi="96"
   inkscape:export-ydpi="96">
  <defs
     id="defs2">
    <linearGradient
       id="a"
       x1="45.897"
       x2="69.603"
       y1="31.278"
       y2="30.516"
       gradientUnits="userSpaceOnUse">
      <stop
         stop-color="#fd0"
         offset="0"
         id="stop909" />
      <stop
         stop-color="#F39200"
         offset="1"
         id="stop911" />
    </linearGradient>
    <linearGradient
       id="paint0_linear"
       x1="58.9318"
       y1="39.5514"
       x2="89.0501"
       y2="39.5514"
       gradientUnits="userSpaceOnUse">
      <stop
         stop-color="#FFDD00"
         id="stop990" />
      <stop
         offset="1"
         stop-color="#F7941D"
         id="stop992" />
    </linearGradient>
  </defs>
  <sodipodi:namedview
     id="base"
     pagecolor="#ffffff"
     bordercolor="#666666"
     borderopacity="1.0"
     inkscape:pageopacity="1"
     inkscape:pageshadow="2"
     inkscape:zoom="0.7"
     inkscape:cx="389.73614"
     inkscape:cy="-79.467301"
     inkscape:document-units="px"
     inkscape:current-layer="layer1"
     inkscape:document-rotation="0"
     showgrid="true"
     units="px"
     inkscape:showpageshadow="false"
     objecttolerance="5"
     guidetolerance="6.6"
     showguides="true"
     inkscape:guide-bbox="true"
     inkscape:window-width="2488"
     inkscape:window-height="1384"
     inkscape:window-x="72"
     inkscape:window-y="27"
     inkscape:window-maximized="1">
    <inkscape:grid
       type="xygrid"
       id="grid833" />
    <sodipodi:guide
       position="423.33332,52.91667"
       orientation="0,-1"
       id="guide849" />
    <sodipodi:guide
       position="52.916665,0"
       orientation="1,0"
       id="guide956" />
  </sodipodi:namedview>
  <metadata
     id="metadata5">
    <rdf:RDF>
      <cc:Work
         rdf:about="">
        <dc:format>image/svg+xml</dc:format>
        <dc:type
           rdf:resource="http://purl.org/dc/dcmitype/StillImage" />
        <dc:title></dc:title>
      </cc:Work>
    </rdf:RDF>
  </metadata>
  <g
     inkscape:label="Слой 1"
     inkscape:groupmode="layer"
     id="layer1">
    <path
       style="fill:#312783;fill-opacity:1;stroke:#000000;stroke-width:0.264583px;stroke-linecap:butt;stroke-linejoin:miter;stroke-opacity:1"
       d="M 423.33333,0 H 190.5 L 137.58333,52.916664 190.5,105.83333 h 232.83333 z"
       id="path851"
       sodipodi:nodetypes="cccccc" />
    <text
       xml:space="preserve"
       style="font-style:normal;font-weight:normal;font-size:52.9167px;line-height:1.25;font-family:sans-serif;letter-spacing:3.96875px;word-spacing:0px;fill:#000000;fill-opacity:1;stroke:none;stroke-width:0.328241"
       x="216.25893"
       y="63.059978"
       id="text855"
       transform="scale(0.8752032,1.1425918)"><tspan
         sodipodi:role="line"
         id="tspan853"
         x="216.25893"
         y="63.059978"
         style="font-style:normal;font-variant:normal;font-weight:bold;font-stretch:normal;font-size:52.9167px;font-family:Montserrat;-inkscape-font-specification:'Montserrat Bold';fill:#ffffff;fill-opacity:1;stroke-width:0.328241">СТУДИЯ</tspan></text>
    <g
       style="fill:none"
       id="g942"
       transform="matrix(1.5623081,0,0,1.5623081,17.714545,-0.60158728)">
      <g
         id="g954">
        <path
           d="M 69.448,41.259 C 58.425,50.1469 45.268,52.195 40.083,45.7465 34.9419,39.342 39.6473,26.9245 50.67,17.9935 54.199,15.1179 57.9895,12.9831 61.649,11.5889 55.1573,4.4873 45.834,-1e-4 35.421,-1e-4 c -19.519,0 -35.377,15.859 -35.377,35.378 0,19.519 15.859,35.378 35.377,35.378 17.82,0 32.589,-13.201 35.029,-30.367 -0.3049,0.305 -0.6535,0.61 -1.002,0.8714 z"
           fill="#ffffff"
           id="path875" />
        <path
           d="m 66.485,42.174 c -0.9149,4.2697 -2.7012,8.2344 -5.2718,11.807 -1.0021,1.3941 -2.1348,2.7012 -3.3547,3.9211 -1.7864,1.7863 -3.7905,3.3548 -5.8818,4.6618 -4.9668,3.0498 -10.674,4.6619 -16.643,4.6619 -0.61,0 -1.2199,0 -1.8299,-0.0436 C 28.5806,66.9208 23.8316,65.5266 19.6488,63.1303 17.4703,61.8668 15.379,60.3419 13.5056,58.5992 13.2878,58.3814 13.0699,58.1635 12.8085,57.9457 6.8832,51.8897 3.572,43.8727 3.572,35.3777 c 0,-1.1763 0.04357,-2.3527 0.17427,-3.4854 0.78424,-7.1888 3.9647,-13.811 9.1493,-18.996 6.0125,-6.0124 13.986,-9.3236 22.481,-9.3236 0.7843,0 1.5249,0.04357 2.3092,0.08714 4.7925,0.34854 9.3236,1.7427 13.419,4.0519 2.222,1.2635 4.3133,2.832 6.1868,4.6183 l 0.1742,0.1742 c 0.1307,0.1307 0.2614,0.2614 0.3922,0.3921 0.0871,0.0872 0.2178,0.2179 0.3049,0.305 1.1764,-0.5664 2.3527,-1.0892 3.4855,-1.4813 -1.0456,-1.1763 -2.1348,-2.2656 -3.3548,-3.2676 -0.3485,-0.30498 -0.7406,-0.60996 -1.1327,-0.91494 -0.0436,-0.04356 -0.0872,-0.08713 -0.1308,-0.1307 -3.3547,-2.6141 -7.0145,-4.5311 -10.848,-5.751 h -0.0871 c -2.222,-0.74066 -4.6183,-1.2199 -7.1017,-1.4813 -1.1763,-0.13071 -2.3962,-0.17427 -3.6162,-0.17427 -0.5228,0 -1.0892,0 -1.612,0.043568 -4.7925,0.21784 -9.4979,1.3942 -13.855,3.529 -4.444,2.1784 -8.3652,5.2282 -11.502,8.9315 -0.34854,0.3921 -0.65352,0.7843 -0.9585,1.2199 -2.3963,3.0498 -4.1826,6.4046 -5.4025,9.8465 v 0.0436 c -0.74067,2.0913 -1.3071,4.2697 -1.612,6.5352 -0.30498,1.6556 -0.43568,3.4419 -0.43568,5.2282 0,0.5664 0,1.0893 0.043568,1.6556 0.21784,4.7926 1.4378,9.5415 3.5726,13.942 2.1348,4.3569 5.1411,8.1909 8.7572,11.328 0.4357,0.3486 0.8714,0.7407 1.3071,1.0457 0.2178,0.1742 0.4357,0.3049 0.6535,0.4792 0.3486,0.2614 0.6971,0.4793 1.0021,0.7407 3.0933,2.1348 6.4481,3.7033 9.89,4.7489 h 0.0436 c 3.1805,0.9585 6.5788,1.4814 10.108,1.4814 h 0.9586 c 0.2178,0 0.4356,0 0.6535,-0.0436 4.7925,-0.2179 9.4979,-1.3942 13.855,-3.4855 1.6121,-0.7842 3.1805,-1.6992 4.6619,-2.7448 2.5269,-1.7427 4.8361,-3.834 6.8402,-6.1867 0.3485,-0.3921 0.6535,-0.8278 1.0021,-1.2199 1.1327,-1.4813 2.1784,-3.0062 3.0498,-4.6183 0.9149,-1.6991 1.6991,-3.3983 2.3527,-5.1846 v -0.0436 c 0.9585,-2.7012 1.612,-5.5332 1.8734,-8.4958 -0.61,0.5664 -1.2199,1.1328 -1.8734,1.6556 -0.7407,0.6099 -1.4814,1.1763 -2.2656,1.7427 z"
           fill="#ffffff"
           id="path901" />
        <g
           style="fill:none"
           id="g1022"
           transform="matrix(0.74236201,0,0,0.74236201,-5.000548,0.47719217)">
          <g
             id="g1033">
            <path
               d="m 38.8701,78.3926 c 1.1685,2.8181 2.5776,5.4644 4.2616,7.9389 0.7905,0.0344 1.5809,0.0687 2.337,0.0687 7.664,0 15.0186,-2.0964 21.3767,-6.0143 -4.3647,-1.684 -10.5165,-2.6463 -17.5963,-2.6463 -3.2649,0 -6.7704,0.2062 -10.379,0.653 z"
               fill="#ec008c"
               id="path958" />
            <path
               d="m 9.17557,40.5881 c -1.23723,0.3093 -2.40573,0.4468 -3.47113,0.4468 -0.3093,0 -0.61861,0 -0.89355,-0.0343 -0.17184,1.4778 -0.24058,2.9899 -0.24058,4.5021 0,10.9289 4.26159,21.2048 11.99429,28.9375 0.275,0.275 0.5843,0.5843 0.8592,0.8592 -0.378,-4.3647 -0.2062,-8.7293 0.4124,-13.0597 C 12.578,58.3562 9.24431,53.476 8.55696,47.9084 8.28202,45.434 8.48822,42.9939 9.17557,40.5881 Z M 48.4578,4.67398 C 47.1174,7.6296 45.2272,10.8258 42.8558,14.0907 48.1141,12.4411 53.7504,11.2038 59.696,10.4477 61.7237,10.2072 63.717,10.001 65.7103,9.86349 60.4521,6.90788 54.5752,5.12076 48.4578,4.67398 Z"
               fill="#007236"
               id="path960" />
            <path
               d="m 55.0571,72.2751 c -6.6674,0 -12.991,-0.7217 -18.696,-2.0277 0.5842,2.8181 1.4091,5.5676 2.5088,8.1795 3.6086,-0.4468 7.0797,-0.653 10.379,-0.653 7.0798,0 13.2316,0.9623 17.5963,2.6463 2.715,-1.684 5.2582,-3.6773 7.5608,-5.9799 1.5809,-1.581 3.0244,-3.265 4.296,-5.0521 -3.643,0.8936 -7.4578,1.6153 -11.3757,2.0964 -4.1585,0.5156 -8.2826,0.7905 -12.2692,0.7905 z"
               fill="#312783"
               id="path962" />
            <path
               d="M 65.7106,9.89786 C 63.7173,10.0353 61.724,10.2072 59.6963,10.4821 53.7507,11.2382 48.08,12.4754 42.8561,14.1251 40.416,17.4931 37.4604,20.9642 34.0924,24.3666 25.363,33.096 16.015,38.9729 9.21024,40.6225 8.52288,43.0282 8.28231,45.4683 8.59162,47.9084 9.27897,53.476 12.6126,58.3562 17.8709,62.2397 19.5549,51.0359 24.6757,40.3476 33.2332,31.79 43.8872,21.1361 57.9092,15.8091 72.0343,15.8091 c 0.5498,0 1.0997,0 1.684,0.0344 -2.4745,-2.337 -5.1552,-4.3304 -8.0077,-5.94564 z"
               fill="#39b54a"
               id="path964" />
            <path
               d="m 45.503,4.57086 c -10.9289,0 -21.2048,4.26159 -28.9375,11.99434 -6.66732,6.6673 -10.75707,15.1904 -11.75373,24.4353 0.27494,0.0344 0.58425,0.0344 0.89356,0.0344 1.06539,0 2.23389,-0.1375 3.47113,-0.4468 C 12.3383,29.6936 25.2261,19.6582 42.8224,14.1251 45.1937,10.8258 47.0839,7.62958 48.4243,4.70833 47.462,4.60523 46.4997,4.57086 45.503,4.57086 Z"
               fill="#0088c7"
               id="path966" />
            <path
               d="m 17.8708,62.2397 c -0.653,4.2959 -0.7904,8.695 -0.4124,13.0597 2.4057,2.2682 5.0521,4.2272 7.8702,5.8425 3.9523,-1.1342 8.3857,-2.0621 13.0597,-2.6463 0.1718,-0.0344 0.3437,-0.0344 0.5155,-0.0688 C 37.8384,75.8149 36.9792,73.0998 36.395,70.2473 28.9716,68.529 22.6479,65.7795 17.8708,62.2397 Z"
               fill="#0088c7"
               id="path968" />
            <path
               d="m 74.8185,29.0063 c -6.5986,2.7494 -16.3246,8.6263 -15.8779,9.1074 0.1719,0.1719 1.8215,-0.5499 3.9179,-1.2716 3.4024,-1.2028 7.9046,-2.3713 8.7638,0.4124 1.4091,4.5022 -2.5088,15.053 -1.2716,16.4278 1.2372,1.3747 7.011,-5.1552 11.7881,-12.5099 4.8115,-7.3546 7.5609,-14.8811 6.7704,-15.7403 -0.1375,-0.1375 -0.4811,-0.2406 -0.9623,-0.2406 -2.1995,0.0344 -7.6983,1.5465 -13.1284,3.8148 z"
               fill="url(#paint0_linear)"
               id="path970"
               style="fill:url(#paint0_linear)" />
            <path
               d="m 85.4723,54.2321 c -1.1685,5.4645 -3.4712,10.6196 -6.7361,15.1561 -1.2716,1.7871 -2.715,3.4712 -4.2959,5.0521 -2.3027,2.3026 -4.8459,4.2959 -7.5609,5.9799 -6.358,3.9179 -13.7127,6.0144 -21.3767,6.0144 -0.7904,0 -1.5809,-0.0344 -2.337,-0.0688 C 36.8421,86.0221 30.759,84.2007 25.3289,81.1419 22.5108,79.5267 19.8645,77.5677 17.4587,75.2995 17.1494,75.0245 16.8745,74.7496 16.5996,74.4403 8.86685,66.7076 4.60526,56.4316 4.60526,45.5027 4.60526,43.9905 4.674,42.4784 4.84583,41.0006 5.8425,31.7557 9.93224,23.2325 16.5996,16.5652 24.3323,8.83248 34.6082,4.57089 45.5371,4.57089 c 0.9967,0 1.959,0.03437 2.9556,0.10311 6.1174,0.44678 11.9943,2.23389 17.2526,5.22387 2.8525,1.61533 5.5331,3.60863 7.9732,5.94563 0.0688,0.0687 0.1375,0.1374 0.2406,0.2062 0.1719,0.1718 0.3437,0.3437 0.5155,0.5155 0.1375,0.1375 0.275,0.2749 0.4124,0.4124 1.5122,-0.7561 2.99,-1.3747 4.4678,-1.8902 C 78.0145,13.6096 76.6054,12.2005 75.0589,10.8945 74.5777,10.4821 74.0966,10.1041 73.6154,9.72604 73.5467,9.69167 73.478,9.62293 73.4436,9.58856 69.0789,6.22054 64.3706,3.78044 59.456,2.16516 H 59.4216 59.3872 59.3529 C 56.3973,1.20287 53.3042,0.584249 50.108,0.240573 48.5958,0.103103 47.0493,0 45.5027,0 44.8154,0 44.0937,0 43.4063,0.0343676 37.2545,0.343676 31.2058,1.85585 25.6039,4.57089 19.8989,7.35467 14.8812,11.2726 10.7914,16.0497 10.379,16.5652 9.93224,17.0807 9.5542,17.5962 6.49548,21.5141 4.19285,25.8101 2.61194,30.2435 L 2.57757,30.3122 C 1.61528,32.9929 0.927926,35.8111 0.481147,38.6979 0.171838,40.8975 0,43.2001 0,45.5027 0,46.2244 0,46.9118 0.0343676,47.5992 0.309309,53.7853 1.85585,59.9028 4.60526,65.5047 c 2.74941,5.6019 6.59854,10.5508 11.27254,14.5375 0.5499,0.4811 1.0998,0.9279 1.6841,1.3747 0.2749,0.2062 0.5498,0.4124 0.8248,0.6186 0.4468,0.3093 0.8592,0.6186 1.3059,0.9279 3.9867,2.7494 8.2826,4.7771 12.7161,6.1175 h 0.0343 c 4.1241,1.2372 8.4888,1.8902 12.991,1.8902 0.4124,0 0.7904,0 1.2029,0 0.2749,0 0.5498,-0.0344 0.8248,-0.0344 6.1518,-0.2749 12.2005,-1.7871 17.8024,-4.5021 2.0964,-1.0311 4.0898,-2.1996 6.0143,-3.5055 3.265,-2.2683 6.2206,-4.949 8.7982,-7.939 0.4467,-0.5155 0.8591,-1.031 1.2716,-1.5809 1.4778,-1.8902 2.7837,-3.8835 3.9179,-5.9112 1.2028,-2.1652 2.1995,-4.3991 3.0243,-6.6673 V 60.7963 60.762 c 1.2372,-3.4712 2.0621,-7.1485 2.4057,-10.929 -0.756,0.7218 -1.5809,1.4435 -2.4057,2.1308 -0.8592,0.7905 -1.8215,1.5466 -2.8181,2.2683 z"
               fill="#312783"
               id="path972" />
            <path
               d="m 52.4105,58.0469 c -6.5642,-7.8014 -1.0654,-23.1981 12.2693,-34.3676 3.2993,-2.7494 6.736,-4.9833 10.1728,-6.7017 -0.1375,-0.1374 -0.275,-0.2749 -0.4124,-0.4124 -0.1719,-0.1718 -0.3437,-0.3436 -0.5155,-0.5155 -21.7891,3.368 -38.4574,22.2359 -38.4574,44.9529 0,3.1618 0.3093,6.2549 0.9279,9.2105 5.705,1.3059 12.0287,2.0277 18.696,2.0277 3.9866,0 8.1108,-0.2406 12.3036,-0.7905 3.9179,-0.4811 7.7327,-1.2029 11.3757,-2.0964 3.2993,-4.5365 5.5675,-9.6917 6.736,-15.1561 -12.716,9.2449 -27.0129,11.1007 -33.096,3.8491 z"
               fill="#ec008c"
               id="path974" />
          </g>
        </g>
      </g>
    </g>
  </g>
</svg>
